<svg xmlns="http://www.w3.org/2000/svg" width="47" height="53"><path d="M46.189 39.5c-1.367 2.35-4.18 3.55-8.063 3.55a25.616 25.616 0 01-5.1-.58c-2.126 6.73-5.531 10.54-9.529 10.54s-7.4-3.81-9.527-10.53a26.026 26.026 0 01-5.193.58c-3.846 0-6.588-1.18-7.967-3.56-1.926-3.31-.39-7.98 4.2-13-4.583-5.02-6.121-9.69-4.2-13.01 1.906-3.27 6.642-4.31 13.158-2.96C16.096 3.8 19.5-.01 23.498-.01s7.4 3.81 9.529 10.54a24.667 24.667 0 015.578-.59c3.643.07 6.251 1.27 7.58 3.55 1.926 3.32.39 7.99-4.2 13.01 4.591 5.02 6.128 9.68 4.204 13zm-28-.6c1.649 6.66 4.134 9.14 5.312 9.14 1.036 0 3.08-1.92 4.68-6.9a54.609 54.609 0 01-5.762-2.33 64.64 64.64 0 01-4.676-2.43.255.255 0 00-.071-.04c.16.86.312 1.74.516 2.56zm-13-1.87c.472.82 2.928 1.56 7.616.61a54.528 54.528 0 01-.861-6.12c-.118-1.5-.177-3.05-.186-4.6-.52.45-1.025.9-1.5 1.36-4.75 4.56-5.632 7.79-5.073 8.75zm9.873-21.14c-6.173-1.71-9.33-.86-9.876.08-.485.83.128 3.39 3.434 7.06 1.341-1.15 2.8-2.29 4.379-3.4a67.193 67.193 0 014.606-2.93c-.866-.3-1.719-.58-2.547-.81zm13.755-1.8c-1.649-6.65-4.134-9.13-5.313-9.13-1.036 0-3.08 1.92-4.68 6.9a52.387 52.387 0 015.762 2.33c1.6.75 3.175 1.57 4.677 2.43.023.01.048.03.07.04-.164-.87-.317-1.74-.52-2.57zm1.27 8.93a60.783 60.783 0 00-3.358-2.11 61.762 61.762 0 00-3.225-1.7c-1.1.54-2.185 1.11-3.224 1.7-1.12.65-2.243 1.36-3.359 2.11-.067 1.15-.134 2.3-.134 3.48s.067 2.33.134 3.48c1.116.75 2.239 1.46 3.359 2.1 1.041.6 2.126 1.17 3.224 1.71a54.77 54.77 0 003.225-1.71 55.135 55.135 0 003.358-2.1c.068-1.15.135-2.3.135-3.48s-.071-2.33-.139-3.48zm-.681 13.27c.862.31 1.712.58 2.54.81 6.17 1.72 9.329.87 9.877-.07.485-.84-.13-3.4-3.433-7.06a57.73 57.73 0 01-4.38 3.4 67.822 67.822 0 01-4.61 2.92zm12.413-20.33c-.475-.81-2.929-1.55-7.616-.61a54.72 54.72 0 01.861 6.12c.118 1.51.177 3.05.187 4.61.52-.45 1.025-.91 1.5-1.36 4.742-4.56 5.623-7.79 5.064-8.76zM23.5 29.81a3.315 3.315 0 113.359-3.31 3.334 3.334 0 01-3.359 3.31z" fill="#fff" fill-rule="evenodd"/></svg>