<svg xmlns="http://www.w3.org/2000/svg" width="53" height="53"><path d="M47.879 27.32A33.862 33.862 0 0138 36.9a20.765 20.765 0 01-8.64 15.64 2.525 2.525 0 01-1.445.46 2.423 2.423 0 01-.95-.19 2.492 2.492 0 01-1.5-1.88 21.857 21.857 0 00-2.859-7.22c-1.657.45-3.265.82-4.77 1.08a2.055 2.055 0 01-.426.04 2.489 2.489 0 01-1.759-.73l-6.75-6.75a2.483 2.483 0 01-.693-2.18c.262-1.51.629-3.11 1.081-4.77a21.779 21.779 0 00-7.213-2.86 2.488 2.488 0 01-1.611-3.9A20.8 20.8 0 0116.1 15a33.781 33.781 0 019.575-9.88C32.938.39 41.569 0 50.516 0a2.484 2.484 0 012.488 2.48c-.004 8.59-.399 17.59-5.125 24.84zM28.89 47.54a16.6 16.6 0 004.552-8.01 55.329 55.329 0 01-6.786 2.91 28.033 28.033 0 012.234 5.1zM5.455 24.11a27.619 27.619 0 015.1 2.23 55.594 55.594 0 012.911-6.78 16.467 16.467 0 00-8.011 4.55zM28.386 9.29c-7.92 5.15-13.168 16.27-15.045 25.47l4.891 4.89c9.2-1.87 20.32-7.12 25.478-15.04 3.575-5.49 4.207-12.37 4.3-19.62-7.257.09-14.132.72-19.624 4.3zm7.2 12.27a4.145 4.145 0 114.147-4.15 4.15 4.15 0 01-4.151 4.15zM3.417 44.41a4.147 4.147 0 115.175 5.17l-5.941 1.8a.649.649 0 01-.241.04.828.828 0 01-.829-.83.866.866 0 01.035-.24z" fill="#87949e" fill-rule="evenodd"/></svg>