<svg xmlns="http://www.w3.org/2000/svg" width="94" height="94"><circle cx="47" cy="47" r="47" fill="#fff"/><path data-name="Development" d="M59.91 47.47a20.137 20.137 0 01-5.96 5.77 12.493 12.493 0 01-5.2 9.43 1.485 1.485 0 01-.88.28 1.647 1.647 0 01-.57-.11 1.484 1.484 0 01-.9-1.14 13.235 13.235 0 00-1.73-4.35c-1 .27-1.97.5-2.87.65a1.153 1.153 0 01-.26.03 1.516 1.516 0 01-1.06-.44l-4.07-4.07a1.537 1.537 0 01-.42-1.32c.16-.91.38-1.88.65-2.87a13.19 13.19 0 00-4.34-1.73 1.5 1.5 0 01-1.14-.9 1.48 1.48 0 01.17-1.45 12.532 12.532 0 019.42-5.21 20.633 20.633 0 015.77-5.96C50.9 31.23 56.11 31 61.5 31a1.5 1.5 0 011.5 1.5c0 5.18-.24 10.6-3.09 14.97zM48.47 59.66a10.049 10.049 0 002.74-4.83 35.245 35.245 0 01-4.09 1.76 17.009 17.009 0 011.35 3.07zM34.34 45.53a17.322 17.322 0 013.07 1.35 33.6 33.6 0 011.76-4.09 10.049 10.049 0 00-4.83 2.74zm13.82-8.93c-4.77 3.11-7.94 9.81-9.07 15.36l2.95 2.94c5.55-1.13 12.25-4.29 15.36-9.06 2.15-3.32 2.54-7.46 2.59-11.83-4.37.05-8.52.43-11.83 2.59zM52.5 44a2.5 2.5 0 112.5-2.5 2.5 2.5 0 01-2.5 2.5zM33.11 57.77a2.5 2.5 0 113.12 3.12l-3.58 1.09a.772.772 0 01-.15.02.5.5 0 01-.5-.5.772.772 0 01.02-.15z" fill="#17daa3" fill-rule="evenodd"/></svg>